<svg width="100" height="125" viewBox="0 0 100 125" fill="none" xmlns="http://www.w3.org/2000/svg">
<path d="M59.3335 20.5537C60.2871 20.034 61.1992 19.3949 62.2498 19.1282C62.9678 18.9688 63.7146 19.6079 63.7146 20.3936C63.6865 21.1264 63.3138 21.7791 62.9959 22.4053C61.4206 25.2957 59.555 27.9866 58.0901 30.9435C57.4678 32.2624 56.9016 33.7809 57.3299 35.2593C57.5508 36.3117 58.311 37.1639 58.325 38.2698C58.3665 38.8825 58.228 39.4816 58.0071 40.0413C58.408 42.0124 58.145 44.1035 57.3159 45.9151C56.5838 47.5672 55.5606 49.0456 54.4002 50.3775C54.0958 50.6971 53.723 51.1232 53.2533 50.9902C53.0043 50.8301 53.0599 50.4576 53.1562 50.2174C53.4052 49.6047 53.7505 49.0321 54.0549 48.4594C55.1464 46.4212 56.2378 44.17 56.0029 41.7328C55.8376 39.8277 54.5796 38.3628 53.5296 36.9108C52.3412 35.2994 50.9727 33.6473 50.7244 31.5426C50.4895 29.731 51.2076 27.9595 52.2307 26.5476C54.0824 23.9638 56.7082 22.1658 59.3335 20.5537ZM56.4453 25.7218C55.1464 26.9343 53.792 28.2661 53.2667 30.0777C52.8384 31.6491 53.8475 33.0481 54.69 34.2199C54.7181 32.5685 55.2842 30.9835 55.9895 29.5315C57.178 27.1473 58.7392 25.0162 60.1492 22.7785C58.8497 23.6843 57.6063 24.643 56.4453 25.7218Z" fill="#050505"/>
<path d="M40.8848 23.1245C41.4242 22.9644 42.0873 22.9644 42.5297 23.4041C42.9713 23.8037 43.0958 24.4829 42.9579 25.0691C42.7645 25.9219 42.3082 26.6941 41.9354 27.4669C40.9678 29.3585 39.9727 31.3166 39.6963 33.4878C39.5719 34.2735 39.7519 35.1928 40.415 35.6454C41.8939 36.7378 43.773 37.417 44.6992 39.175C45.5832 40.8671 45.1 42.8517 44.837 44.6497C44.4362 46.7014 44.5472 49.0056 43.3032 50.7636C42.875 51.2697 43.1928 52.029 42.9298 52.6016C42.6535 53.0013 42.1288 52.7882 41.8939 52.4686C41.3131 51.7494 41.3827 50.7236 41.3961 49.8313C41.479 47.7002 41.2167 45.4754 40.2216 43.5844C39.254 41.8129 37.5128 40.8135 35.9516 39.7211C34.2933 38.5623 32.5936 37.3104 31.5845 35.4459C31.0177 34.3936 30.7969 33.1146 31.0873 31.9293C31.4875 30.2243 32.5936 28.8523 33.7955 27.7064C35.4122 26.1879 37.2505 24.9891 39.1436 23.9373C39.7104 23.6307 40.2772 23.3111 40.8848 23.1245ZM34.5697 30.5974C34.0444 31.2766 33.4917 32.0358 33.4502 32.9545C33.4227 33.7673 33.8785 34.4601 34.3623 35.0327C35.882 36.7907 37.9002 37.9096 39.6415 39.3751C40.8989 40.3874 41.9073 41.7064 42.5711 43.2248C42.5986 42.2125 42.9994 41.0001 42.2948 40.1479C41.2301 38.9755 39.6689 38.5493 38.5494 37.4434C37.6647 36.5777 37.209 35.2858 37.2645 34.0069C37.306 31.223 38.6183 28.7323 39.8208 26.348C37.9411 27.5334 36.048 28.8252 34.5697 30.5974Z" fill="#050505"/>
<path d="M73.7471 25.5088C75.6958 24.7231 77.7689 24.4435 79.7999 24.1104C80.4222 23.9903 81.1403 24.2569 81.3758 24.9226C81.6522 25.5623 81.2788 26.2551 80.8224 26.6676C78.8744 28.4792 76.8428 30.2908 75.5298 32.7015C74.7007 34.1805 74.3554 35.8985 74.2865 37.6036C74.162 40.4804 73.5812 43.5044 71.868 45.8086C71.1627 46.7944 70.0298 47.5401 68.8273 47.3806C68.1782 47.3406 67.4869 46.7944 67.515 46.0487C67.5699 45.2094 68.482 44.6232 69.2007 44.9828C70.4166 43.7439 71.3287 42.0259 71.3287 40.1879C71.3287 38.4293 70.61 36.8043 70.0438 35.1793C69.5185 33.6744 68.8828 32.1824 68.7998 30.5574C68.7309 29.3585 69.2562 28.1861 70.1402 27.4533C71.2042 26.5747 72.4897 26.0285 73.7471 25.5088ZM72.1993 29.1584C71.7851 29.4386 71.2598 29.7846 71.2872 30.3838C71.3287 31.6762 71.9229 32.848 72.2689 34.0605C73.001 31.4232 74.6452 29.2249 76.5109 27.3868C75.0186 27.8 73.5397 28.3462 72.1993 29.1584Z" fill="#050505"/>
<path d="M50.3238 57.8233C52.2999 57.6767 54.29 57.9033 56.2661 57.9698C62.3189 58.2494 68.3442 59.0222 74.314 60.141C75.9033 60.4741 77.5201 60.7408 78.999 61.4865C79.5102 61.726 79.9245 62.1527 80.2698 62.6188C80.864 62.6853 81.4997 62.8719 81.8731 63.4181C82.5363 64.3633 82.7163 65.5757 82.8956 66.7081C83.269 69.1453 83.4209 71.6231 83.172 74.0874C82.8541 76.8177 82.094 79.4821 81.1129 82.0258C79.5932 85.9155 77.3541 89.4987 74.4104 92.3355C74.6459 93.9876 74.9497 95.639 74.9772 97.304C75.0046 98.2363 74.7838 99.1421 74.7838 100.075C74.8112 100.781 74.231 101.3 73.6368 101.473C71.8541 102.046 70.0159 102.406 68.1508 102.393C67.1832 102.459 66.1881 102.299 65.2486 102.606C64.6269 102.779 64.0876 102.166 63.9912 101.553C63.8252 100.634 63.8386 99.6883 63.7282 98.756C60.5636 99.8083 57.2612 100.274 53.9581 100.461C49.757 100.674 45.5144 100.448 41.3962 99.4352C36.5734 98.3034 31.778 96.0387 28.4475 92.0294C26.1261 89.232 24.6753 85.6489 24.1634 81.9593C23.5557 83.3047 22.5192 84.5436 21.1099 84.9162C19.6865 85.3029 18.1936 84.6237 17.157 83.5843C15.5128 81.9464 14.5037 79.6686 14.1724 77.3238C13.8131 74.54 14.2554 71.6096 15.5543 69.1453C16.4939 67.3608 18.1387 65.8153 20.1282 65.6823C21.8005 65.5092 23.3757 66.5345 24.3574 67.907C24.6472 67.3337 24.7442 66.641 25.117 66.1348C25.214 66.1219 25.4074 66.0819 25.5044 66.0683C25.5874 65.2826 25.6423 64.4304 26.1401 63.7906C27.2175 62.2321 28.9039 61.2999 30.5481 60.5671C33.6577 59.2352 36.9742 58.609 40.2907 58.2365C42.5847 57.9963 44.9067 57.9298 47.2141 58.0899C48.2921 58.1964 49.3013 57.8898 50.3238 57.8233ZM35.3294 60.9267C32.939 61.593 30.4791 62.3922 28.489 64.0172C28.0607 64.4433 27.4109 64.923 27.4805 65.6287C27.9088 66.1884 28.5994 66.375 29.2217 66.5616C31.2668 67.0806 33.3948 67.1607 35.4953 67.1872C39.2682 67.2272 43.013 66.7875 46.7858 66.6281C50.2267 66.4815 53.6677 66.6016 57.1086 66.6281C57.8414 64.4033 60.2598 63.0714 62.3878 63.6176C63.8386 63.9372 64.9856 65.0831 65.7739 66.375C68.814 66.1219 71.8401 65.6022 74.7697 64.7364C75.9863 64.3768 77.2022 64.0037 78.3217 63.3781C76.9533 62.5653 75.364 62.2986 73.8576 61.939C67.7915 60.7137 61.6417 59.8879 55.4644 59.8479C53.8062 59.835 52.1339 59.835 50.4757 59.7549C49.2872 59.6884 48.1262 59.4354 46.9377 59.3953C43.041 59.4883 39.1297 59.9415 35.3294 60.9267ZM77.2711 66.2149C73.8857 67.4673 70.3337 68.1601 66.7683 68.5061C67.2247 69.8251 67.5425 71.1835 67.7774 72.5689C68.1917 75.1797 68.5236 77.8435 68.3161 80.4944C69.0348 80.2813 69.878 79.8281 70.5967 80.3078C70.942 80.4944 70.928 80.947 71.0109 81.3066C71.5088 81.5196 71.9926 81.7727 72.3928 82.1859C72.8492 82.6385 73.4574 82.8651 73.8991 83.3447C74.2866 83.7708 74.4385 84.3571 74.5074 84.9297C74.6319 86.1421 74.5349 87.3804 74.4385 88.5929C77.3816 85.0898 79.3168 80.7074 80.3393 76.152C80.9055 73.6878 80.961 71.1299 80.6572 68.6262C80.4912 67.3337 80.3808 66.0154 79.8555 64.8165C79.0813 65.4292 78.1832 65.8688 77.2711 66.2149ZM58.2971 66.6145C59.9968 66.6416 61.6972 66.588 63.3969 66.5215C62.7887 65.8688 61.987 65.3756 61.103 65.3756C60.0383 65.3091 59.0713 65.8953 58.2971 66.6145ZM26.0291 66.8411C25.7393 67.2672 25.228 67.6404 25.2829 68.2395C25.2414 71.1699 25.2555 74.1003 25.5178 77.0042C25.7808 80.2943 26.2091 83.6508 27.5769 86.6483C28.6824 89.192 30.4517 91.3767 32.6071 92.9752C35.4264 95.1064 38.7569 96.3053 42.1289 96.9845C45.7773 97.6901 49.4946 97.9968 53.212 97.8502C56.7218 97.6772 60.2458 97.2375 63.5903 96.0251C63.4384 94.2406 63.3414 92.4426 63.231 90.6575C62.9961 90.4445 62.6642 90.2579 62.6367 89.8847C62.5538 89.2191 62.8716 88.6064 63.0376 87.9802C62.968 87.5541 62.968 87.1274 63.1755 86.7413C63.8112 85.3558 64.1565 83.8109 65.0271 82.559C65.5939 81.7327 66.4505 81.2265 67.3351 80.8669C66.3956 78.7093 66.2851 76.2986 65.9117 73.9938C65.6354 72.1822 65.262 70.3707 64.6129 68.6527C58.0763 69.0123 51.5256 68.3196 44.9891 68.7992C40.4841 69.0923 35.9517 69.4649 31.4468 68.9322C29.553 68.6527 27.4109 68.4261 26.0291 66.8411ZM19.7688 68.4797C18.5804 68.9458 17.8483 70.1711 17.3645 71.3565C16.3975 73.8743 16.273 76.8577 17.3645 79.362C17.8342 80.3879 18.47 81.3866 19.3686 82.0393C19.8384 82.3854 20.5156 82.559 21.0128 82.1459C22.0909 81.3201 22.3673 79.8017 22.3532 78.4698C21.8694 78.3361 21.3722 78.2167 20.9573 77.9236C19.6725 77.0578 19.0093 75.2727 19.3821 73.7007C19.645 72.6754 20.6809 71.9291 21.676 72.1958C22.6985 72.4224 23.3898 73.3546 23.8455 74.2869C23.887 72.7949 24.0255 71.3165 24.2049 69.838C23.0445 68.6527 21.3448 68 19.7688 68.4797ZM66.3815 82.3989C65.9947 83.4913 65.7598 84.6237 65.525 85.7554C65.276 86.7678 65.456 87.8201 65.4694 88.8595C65.5798 92.9087 65.8703 96.9444 66.34 100.967C68.2332 100.168 70.1959 99.5417 72.1994 99.1821C72.4624 95.8656 72.6417 92.5356 72.6692 89.2191C72.6832 87.4605 72.5728 85.5559 71.5503 84.0904C71.0665 83.2247 70.1269 82.8121 69.712 81.8928C68.6065 82.0658 67.487 82.2388 66.3815 82.3989Z" fill="#050505"/>
</svg>
